<mxfile host="app.diagrams.net" agent="Mozilla/5.0 (Windows NT 10.0; Win64; x64) AppleWebKit/537.36 (KHTML, like Gecko) Chrome/123.0.0.0 Safari/537.36 Edg/123.0.0.0" version="24.8.2">
  <diagram name="第 1 页" id="A_YlBjff-S_b-Y9HQc1S">
    <mxGraphModel dx="1508" dy="846" grid="1" gridSize="10" guides="1" tooltips="1" connect="1" arrows="1" fold="1" page="1" pageScale="1" pageWidth="827" pageHeight="1169" math="0" shadow="0">
      <root>
        <mxCell id="0" />
        <mxCell id="1" parent="0" />
        <mxCell id="EIVOLAMRmLMKQAUIXGPY-3" value="" style="edgeStyle=orthogonalEdgeStyle;rounded=0;orthogonalLoop=1;jettySize=auto;html=1;" parent="1" source="EIVOLAMRmLMKQAUIXGPY-1" target="EIVOLAMRmLMKQAUIXGPY-2" edge="1">
          <mxGeometry relative="1" as="geometry" />
        </mxCell>
        <mxCell id="EIVOLAMRmLMKQAUIXGPY-1" value="开始" style="rounded=1;whiteSpace=wrap;html=1;" parent="1" vertex="1">
          <mxGeometry x="340" y="30" width="120" height="60" as="geometry" />
        </mxCell>
        <mxCell id="EIVOLAMRmLMKQAUIXGPY-5" value="" style="edgeStyle=orthogonalEdgeStyle;rounded=0;orthogonalLoop=1;jettySize=auto;html=1;" parent="1" source="EIVOLAMRmLMKQAUIXGPY-2" target="EIVOLAMRmLMKQAUIXGPY-4" edge="1">
          <mxGeometry relative="1" as="geometry" />
        </mxCell>
        <mxCell id="EIVOLAMRmLMKQAUIXGPY-2" value="BD点击去补件" style="whiteSpace=wrap;html=1;rounded=1;" parent="1" vertex="1">
          <mxGeometry x="340" y="170" width="120" height="60" as="geometry" />
        </mxCell>
        <mxCell id="EIVOLAMRmLMKQAUIXGPY-20" style="edgeStyle=orthogonalEdgeStyle;rounded=0;orthogonalLoop=1;jettySize=auto;html=1;exitX=1;exitY=0.5;exitDx=0;exitDy=0;" parent="1" source="EIVOLAMRmLMKQAUIXGPY-4" target="EIVOLAMRmLMKQAUIXGPY-19" edge="1">
          <mxGeometry relative="1" as="geometry" />
        </mxCell>
        <mxCell id="EIVOLAMRmLMKQAUIXGPY-38" value="" style="edgeStyle=orthogonalEdgeStyle;rounded=0;orthogonalLoop=1;jettySize=auto;html=1;" parent="1" source="EIVOLAMRmLMKQAUIXGPY-4" target="EIVOLAMRmLMKQAUIXGPY-37" edge="1">
          <mxGeometry relative="1" as="geometry" />
        </mxCell>
        <mxCell id="EIVOLAMRmLMKQAUIXGPY-4" value="进入补充资料页&lt;div&gt;.UserBizInfoManager#userSupplementQueryV2&lt;br&gt;&lt;/div&gt;" style="whiteSpace=wrap;html=1;rounded=1;" parent="1" vertex="1">
          <mxGeometry x="270" y="310" width="260" height="60" as="geometry" />
        </mxCell>
        <mxCell id="EIVOLAMRmLMKQAUIXGPY-22" value="" style="edgeStyle=orthogonalEdgeStyle;rounded=0;orthogonalLoop=1;jettySize=auto;html=1;" parent="1" source="EIVOLAMRmLMKQAUIXGPY-19" target="EIVOLAMRmLMKQAUIXGPY-21" edge="1">
          <mxGeometry relative="1" as="geometry" />
        </mxCell>
        <mxCell id="EIVOLAMRmLMKQAUIXGPY-19" value="&lt;span style=&quot;font-family: &amp;quot;JetBrains Mono&amp;quot;, monospace; font-size: 14px; white-space: pre; background-color: rgb(255, 255, 255);&quot;&gt;组装所有流程节点&lt;/span&gt;&lt;br style=&quot;font-family: &amp;quot;JetBrains Mono&amp;quot;, monospace; font-size: 14px; white-space: pre;&quot;&gt;&lt;span style=&quot;font-family: &amp;quot;JetBrains Mono&amp;quot;, monospace; font-size: 14px; white-space: pre; background-color: rgb(255, 255, 255);&quot;&gt;f_flow&lt;/span&gt;" style="rounded=0;whiteSpace=wrap;html=1;" parent="1" vertex="1">
          <mxGeometry x="620" y="310" width="120" height="60" as="geometry" />
        </mxCell>
        <mxCell id="EIVOLAMRmLMKQAUIXGPY-24" value="" style="edgeStyle=orthogonalEdgeStyle;rounded=0;orthogonalLoop=1;jettySize=auto;html=1;" parent="1" source="EIVOLAMRmLMKQAUIXGPY-21" target="EIVOLAMRmLMKQAUIXGPY-23" edge="1">
          <mxGeometry relative="1" as="geometry" />
        </mxCell>
        <mxCell id="EIVOLAMRmLMKQAUIXGPY-26" value="" style="edgeStyle=orthogonalEdgeStyle;rounded=0;orthogonalLoop=1;jettySize=auto;html=1;" parent="1" source="EIVOLAMRmLMKQAUIXGPY-21" target="EIVOLAMRmLMKQAUIXGPY-25" edge="1">
          <mxGeometry relative="1" as="geometry" />
        </mxCell>
        <mxCell id="EIVOLAMRmLMKQAUIXGPY-21" value="&lt;font face=&quot;JetBrains Mono, monospace&quot;&gt;&lt;span style=&quot;font-size: 14px; white-space: pre; background-color: rgb(255, 255, 255);&quot;&gt;校验是否完成必填项&lt;/span&gt;&lt;/font&gt;" style="whiteSpace=wrap;html=1;rounded=0;" parent="1" vertex="1">
          <mxGeometry x="610" y="450" width="140" height="60" as="geometry" />
        </mxCell>
        <mxCell id="EIVOLAMRmLMKQAUIXGPY-23" value="读取AUTH_INFO_PAGE_NODE_CONFIG_V2配置&lt;font class=&quot;__Cici__translate__ __Cici_translate_similar_text_content__&quot;&gt;&lt;font style=&quot;display: none;&quot; class=&quot;__Cici_translate_origin_node__&quot;&gt;读取AUTH_INFO_PAGE_NODE_CONFIG_V2配置&lt;/font&gt; &lt;font style=&quot;display: inline-block;&quot; class=&quot;__Cici_translate_translated_inject_node__&quot;&gt;&lt;span&gt;读取AUTH_INFO_PAGE_NODE_CONFIG_V2配置&lt;/span&gt;&lt;/font&gt;&lt;/font&gt;" style="whiteSpace=wrap;html=1;rounded=0;" parent="1" vertex="1">
          <mxGeometry x="840" y="450" width="120" height="60" as="geometry" />
        </mxCell>
        <mxCell id="EIVOLAMRmLMKQAUIXGPY-28" value="" style="edgeStyle=orthogonalEdgeStyle;rounded=0;orthogonalLoop=1;jettySize=auto;html=1;" parent="1" source="EIVOLAMRmLMKQAUIXGPY-25" target="EIVOLAMRmLMKQAUIXGPY-27" edge="1">
          <mxGeometry relative="1" as="geometry" />
        </mxCell>
        <mxCell id="EIVOLAMRmLMKQAUIXGPY-30" value="" style="edgeStyle=orthogonalEdgeStyle;rounded=0;orthogonalLoop=1;jettySize=auto;html=1;" parent="1" source="EIVOLAMRmLMKQAUIXGPY-25" target="EIVOLAMRmLMKQAUIXGPY-29" edge="1">
          <mxGeometry relative="1" as="geometry" />
        </mxCell>
        <mxCell id="EIVOLAMRmLMKQAUIXGPY-25" value="获取每个节点的属性" style="whiteSpace=wrap;html=1;rounded=0;" parent="1" vertex="1">
          <mxGeometry x="620" y="590" width="120" height="60" as="geometry" />
        </mxCell>
        <mxCell id="EIVOLAMRmLMKQAUIXGPY-34" value="" style="edgeStyle=orthogonalEdgeStyle;rounded=0;orthogonalLoop=1;jettySize=auto;html=1;" parent="1" source="EIVOLAMRmLMKQAUIXGPY-27" target="EIVOLAMRmLMKQAUIXGPY-33" edge="1">
          <mxGeometry relative="1" as="geometry" />
        </mxCell>
        <mxCell id="EIVOLAMRmLMKQAUIXGPY-36" style="edgeStyle=orthogonalEdgeStyle;rounded=0;orthogonalLoop=1;jettySize=auto;html=1;exitX=1;exitY=0.5;exitDx=0;exitDy=0;entryX=0;entryY=0.5;entryDx=0;entryDy=0;" parent="1" source="EIVOLAMRmLMKQAUIXGPY-27" target="EIVOLAMRmLMKQAUIXGPY-35" edge="1">
          <mxGeometry relative="1" as="geometry" />
        </mxCell>
        <mxCell id="EIVOLAMRmLMKQAUIXGPY-27" value="是否可见、是否虚拟节点、节点的状态、是否可跳过" style="whiteSpace=wrap;html=1;rounded=0;" parent="1" vertex="1">
          <mxGeometry x="820" y="590" width="120" height="60" as="geometry" />
        </mxCell>
        <mxCell id="EIVOLAMRmLMKQAUIXGPY-32" value="" style="edgeStyle=orthogonalEdgeStyle;rounded=0;orthogonalLoop=1;jettySize=auto;html=1;" parent="1" source="EIVOLAMRmLMKQAUIXGPY-29" target="EIVOLAMRmLMKQAUIXGPY-31" edge="1">
          <mxGeometry relative="1" as="geometry" />
        </mxCell>
        <mxCell id="EIVOLAMRmLMKQAUIXGPY-48" style="edgeStyle=orthogonalEdgeStyle;rounded=0;orthogonalLoop=1;jettySize=auto;html=1;exitX=0;exitY=0.5;exitDx=0;exitDy=0;" parent="1" source="EIVOLAMRmLMKQAUIXGPY-29" target="EIVOLAMRmLMKQAUIXGPY-37" edge="1">
          <mxGeometry relative="1" as="geometry" />
        </mxCell>
        <mxCell id="EIVOLAMRmLMKQAUIXGPY-29" value="用户端是否提交校验" style="whiteSpace=wrap;html=1;rounded=0;" parent="1" vertex="1">
          <mxGeometry x="620" y="730" width="120" height="60" as="geometry" />
        </mxCell>
        <mxCell id="EIVOLAMRmLMKQAUIXGPY-31" value="小微流水贷APP，小程序用户端提交特殊校验" style="whiteSpace=wrap;html=1;rounded=0;" parent="1" vertex="1">
          <mxGeometry x="820" y="730" width="120" height="60" as="geometry" />
        </mxCell>
        <mxCell id="EIVOLAMRmLMKQAUIXGPY-33" value="亲见：芝麻分，办单合影，蓝牙配对" style="whiteSpace=wrap;html=1;rounded=0;" parent="1" vertex="1">
          <mxGeometry x="1020" y="537" width="120" height="60" as="geometry" />
        </mxCell>
        <mxCell id="EIVOLAMRmLMKQAUIXGPY-35" value="亲访： 尽调表，经营场所，营业执照，其他照片，经营流水" style="whiteSpace=wrap;html=1;rounded=0;" parent="1" vertex="1">
          <mxGeometry x="1020" y="610" width="120" height="60" as="geometry" />
        </mxCell>
        <mxCell id="EIVOLAMRmLMKQAUIXGPY-50" value="" style="edgeStyle=orthogonalEdgeStyle;rounded=0;orthogonalLoop=1;jettySize=auto;html=1;" parent="1" source="EIVOLAMRmLMKQAUIXGPY-37" target="EIVOLAMRmLMKQAUIXGPY-49" edge="1">
          <mxGeometry relative="1" as="geometry" />
        </mxCell>
        <mxCell id="EIVOLAMRmLMKQAUIXGPY-37" value="&lt;div&gt;BD点击提交订单&lt;/div&gt;&lt;div&gt;客户刷脸&lt;/div&gt;&lt;div&gt;BD刷脸&lt;/div&gt;&lt;div&gt;&lt;br&gt;&lt;/div&gt;" style="whiteSpace=wrap;html=1;rounded=1;" parent="1" vertex="1">
          <mxGeometry x="290" y="731" width="219" height="60" as="geometry" />
        </mxCell>
        <mxCell id="EIVOLAMRmLMKQAUIXGPY-58" style="edgeStyle=orthogonalEdgeStyle;rounded=0;orthogonalLoop=1;jettySize=auto;html=1;exitX=1;exitY=0.5;exitDx=0;exitDy=0;entryX=0;entryY=0.5;entryDx=0;entryDy=0;" parent="1" source="EIVOLAMRmLMKQAUIXGPY-49" target="EIVOLAMRmLMKQAUIXGPY-57" edge="1">
          <mxGeometry relative="1" as="geometry" />
        </mxCell>
        <mxCell id="EIVOLAMRmLMKQAUIXGPY-83" value="" style="edgeStyle=orthogonalEdgeStyle;rounded=0;orthogonalLoop=1;jettySize=auto;html=1;" parent="1" source="EIVOLAMRmLMKQAUIXGPY-49" target="EIVOLAMRmLMKQAUIXGPY-82" edge="1">
          <mxGeometry relative="1" as="geometry" />
        </mxCell>
        <mxCell id="EIVOLAMRmLMKQAUIXGPY-49" value="提交前检查&lt;br&gt;&lt;font style=&quot;display: inline;&quot; class=&quot;__Cici__translate__ __Cici_translate_similar_text_content__&quot;&gt;&lt;/font&gt;&lt;div&gt;qihoo.sdk.btl.order.submit.precheck&lt;br&gt;&lt;/div&gt;" style="whiteSpace=wrap;html=1;rounded=1;" parent="1" vertex="1">
          <mxGeometry x="283.5" y="871" width="230.5" height="60" as="geometry" />
        </mxCell>
        <mxCell id="EIVOLAMRmLMKQAUIXGPY-62" value="" style="edgeStyle=orthogonalEdgeStyle;rounded=0;orthogonalLoop=1;jettySize=auto;html=1;" parent="1" source="EIVOLAMRmLMKQAUIXGPY-57" target="EIVOLAMRmLMKQAUIXGPY-61" edge="1">
          <mxGeometry relative="1" as="geometry" />
        </mxCell>
        <mxCell id="EIVOLAMRmLMKQAUIXGPY-57" value="订单状态是否进件中&lt;div&gt;&lt;br&gt;&lt;/div&gt;" style="rounded=0;whiteSpace=wrap;html=1;" parent="1" vertex="1">
          <mxGeometry x="630" y="871" width="120" height="60" as="geometry" />
        </mxCell>
        <mxCell id="EIVOLAMRmLMKQAUIXGPY-64" value="" style="edgeStyle=orthogonalEdgeStyle;rounded=0;orthogonalLoop=1;jettySize=auto;html=1;" parent="1" source="EIVOLAMRmLMKQAUIXGPY-61" target="EIVOLAMRmLMKQAUIXGPY-63" edge="1">
          <mxGeometry relative="1" as="geometry" />
        </mxCell>
        <mxCell id="EIVOLAMRmLMKQAUIXGPY-67" value="Y" style="edgeLabel;html=1;align=center;verticalAlign=middle;resizable=0;points=[];" parent="EIVOLAMRmLMKQAUIXGPY-64" vertex="1" connectable="0">
          <mxGeometry x="-0.2133" y="2" relative="1" as="geometry">
            <mxPoint as="offset" />
          </mxGeometry>
        </mxCell>
        <mxCell id="EIVOLAMRmLMKQAUIXGPY-79" value="" style="edgeStyle=orthogonalEdgeStyle;rounded=0;orthogonalLoop=1;jettySize=auto;html=1;" parent="1" source="EIVOLAMRmLMKQAUIXGPY-61" target="EIVOLAMRmLMKQAUIXGPY-78" edge="1">
          <mxGeometry relative="1" as="geometry" />
        </mxCell>
        <mxCell id="EIVOLAMRmLMKQAUIXGPY-61" value="是否存在审批中的订单" style="rhombus;whiteSpace=wrap;html=1;rounded=0;" parent="1" vertex="1">
          <mxGeometry x="650" y="1001" width="80" height="80" as="geometry" />
        </mxCell>
        <mxCell id="EIVOLAMRmLMKQAUIXGPY-66" value="" style="edgeStyle=orthogonalEdgeStyle;rounded=0;orthogonalLoop=1;jettySize=auto;html=1;" parent="1" source="EIVOLAMRmLMKQAUIXGPY-63" target="EIVOLAMRmLMKQAUIXGPY-65" edge="1">
          <mxGeometry relative="1" as="geometry" />
        </mxCell>
        <mxCell id="EIVOLAMRmLMKQAUIXGPY-68" value="Y" style="edgeLabel;html=1;align=center;verticalAlign=middle;resizable=0;points=[];" parent="EIVOLAMRmLMKQAUIXGPY-66" vertex="1" connectable="0">
          <mxGeometry x="0.0971" y="2" relative="1" as="geometry">
            <mxPoint as="offset" />
          </mxGeometry>
        </mxCell>
        <mxCell id="EIVOLAMRmLMKQAUIXGPY-63" value="调用LPS 查询审批结果&lt;div&gt;ApplBtlFacade#getApplStateForAPLFromAPV&lt;font data-translating=&quot;true&quot; class=&quot;__Cici__translate__&quot;&gt;&lt;font style=&quot;display: none;&quot; class=&quot;__Cici_translate_origin_node__&quot;&gt;com.qihoo.finance.lps.modules.appl.ApplBtlFacade#getApplStateForAPLFromAPV&lt;/font&gt;&lt;font style=&quot;display: inline-block;&quot; class=&quot;__Cici_translate_loading__&quot;&gt;&lt;i&gt;&lt;/i&gt;&lt;/font&gt;&lt;/font&gt;&lt;br&gt;&lt;/div&gt;" style="whiteSpace=wrap;html=1;rounded=0;" parent="1" vertex="1">
          <mxGeometry x="790" y="1011" width="120" height="60" as="geometry" />
        </mxCell>
        <mxCell id="EIVOLAMRmLMKQAUIXGPY-70" value="" style="edgeStyle=orthogonalEdgeStyle;rounded=0;orthogonalLoop=1;jettySize=auto;html=1;" parent="1" source="EIVOLAMRmLMKQAUIXGPY-65" target="EIVOLAMRmLMKQAUIXGPY-69" edge="1">
          <mxGeometry relative="1" as="geometry" />
        </mxCell>
        <mxCell id="EIVOLAMRmLMKQAUIXGPY-74" value="" style="edgeStyle=orthogonalEdgeStyle;rounded=0;orthogonalLoop=1;jettySize=auto;html=1;" parent="1" source="EIVOLAMRmLMKQAUIXGPY-65" target="EIVOLAMRmLMKQAUIXGPY-73" edge="1">
          <mxGeometry relative="1" as="geometry" />
        </mxCell>
        <mxCell id="EIVOLAMRmLMKQAUIXGPY-75" value="N" style="edgeLabel;html=1;align=center;verticalAlign=middle;resizable=0;points=[];" parent="EIVOLAMRmLMKQAUIXGPY-74" vertex="1" connectable="0">
          <mxGeometry x="-0.0133" y="1" relative="1" as="geometry">
            <mxPoint as="offset" />
          </mxGeometry>
        </mxCell>
        <mxCell id="EIVOLAMRmLMKQAUIXGPY-65" value="是否APL状态" style="rhombus;whiteSpace=wrap;html=1;rounded=0;" parent="1" vertex="1">
          <mxGeometry x="810" y="1141" width="80" height="80" as="geometry" />
        </mxCell>
        <mxCell id="EIVOLAMRmLMKQAUIXGPY-69" value="取消对应的子产品&lt;div&gt;applState = CAN&lt;/div&gt;&lt;div&gt;清理流程flow&lt;/div&gt;&lt;div&gt;更新申请记录&lt;/div&gt;" style="whiteSpace=wrap;html=1;rounded=0;" parent="1" vertex="1">
          <mxGeometry x="950" y="1151" width="120" height="60" as="geometry" />
        </mxCell>
        <mxCell id="EIVOLAMRmLMKQAUIXGPY-77" value="" style="edgeStyle=orthogonalEdgeStyle;rounded=0;orthogonalLoop=1;jettySize=auto;html=1;" parent="1" source="EIVOLAMRmLMKQAUIXGPY-73" target="EIVOLAMRmLMKQAUIXGPY-76" edge="1">
          <mxGeometry relative="1" as="geometry" />
        </mxCell>
        <mxCell id="EIVOLAMRmLMKQAUIXGPY-73" value="调用风控关闭ARP的产品" style="whiteSpace=wrap;html=1;rounded=0;" parent="1" vertex="1">
          <mxGeometry x="790" y="1311" width="120" height="60" as="geometry" />
        </mxCell>
        <mxCell id="EIVOLAMRmLMKQAUIXGPY-76" value="从LPS获取结果后，同步初审结果" style="whiteSpace=wrap;html=1;rounded=0;" parent="1" vertex="1">
          <mxGeometry x="790" y="1420" width="120" height="60" as="geometry" />
        </mxCell>
        <mxCell id="EIVOLAMRmLMKQAUIXGPY-81" value="" style="edgeStyle=orthogonalEdgeStyle;rounded=0;orthogonalLoop=1;jettySize=auto;html=1;" parent="1" source="EIVOLAMRmLMKQAUIXGPY-78" target="EIVOLAMRmLMKQAUIXGPY-80" edge="1">
          <mxGeometry relative="1" as="geometry" />
        </mxCell>
        <mxCell id="EIVOLAMRmLMKQAUIXGPY-78" value="单SME初审通过？" style="rhombus;whiteSpace=wrap;html=1;rounded=0;" parent="1" vertex="1">
          <mxGeometry x="650" y="1161" width="80" height="80" as="geometry" />
        </mxCell>
        <mxCell id="EIVOLAMRmLMKQAUIXGPY-80" value="校验是否补充了经营流水" style="whiteSpace=wrap;html=1;rounded=0;" parent="1" vertex="1">
          <mxGeometry x="630" y="1331" width="120" height="60" as="geometry" />
        </mxCell>
        <mxCell id="EIVOLAMRmLMKQAUIXGPY-82" value="检查通过，BD提交订单&lt;font class=&quot;__Cici__translate__ __Cici_translate_similar_text_content__&quot;&gt;&lt;font style=&quot;display: none;&quot; class=&quot;__Cici_translate_origin_node__&quot;&gt;检查通过，BD提交订单&lt;/font&gt; &lt;font style=&quot;display: inline-block;&quot; class=&quot;__Cici_translate_translated_inject_node__&quot;&gt;&lt;span&gt;检查通过，BD提交订单&lt;/span&gt;&lt;/font&gt;&lt;/font&gt;&lt;div&gt;OrderBusinessFacade#submitOrderV2&lt;br&gt;&lt;/div&gt;" style="whiteSpace=wrap;html=1;rounded=1;" parent="1" vertex="1">
          <mxGeometry x="338.75" y="1011" width="120" height="60" as="geometry" />
        </mxCell>
      </root>
    </mxGraphModel>
  </diagram>
</mxfile>
